<mxfile host="Electron" agent="Mozilla/5.0 (Macintosh; Intel Mac OS X 10_15_7) AppleWebKit/537.36 (KHTML, like Gecko) draw.io/25.0.2 Chrome/128.0.6613.186 Electron/32.2.5 Safari/537.36" version="25.0.2">
  <diagram name="Page-1" id="CzsKKpEBBDVPKcVDBcra">
    <mxGraphModel dx="866" dy="698" grid="1" gridSize="10" guides="1" tooltips="1" connect="1" arrows="1" fold="1" page="1" pageScale="1" pageWidth="827" pageHeight="1169" math="0" shadow="0">
      <root>
        <mxCell id="0" />
        <mxCell id="1" parent="0" />
        <mxCell id="zRx8wqQ9m-uIpZDr5qKo-2" value="Центр обработки данных" style="verticalAlign=top;align=left;shape=cube;size=10;direction=south;fontStyle=0;html=1;boundedLbl=1;spacingLeft=5;whiteSpace=wrap;" vertex="1" parent="1">
          <mxGeometry x="260" y="200" width="460" height="310" as="geometry" />
        </mxCell>
        <mxCell id="zRx8wqQ9m-uIpZDr5qKo-3" value="Вычислительный кластер" style="verticalAlign=top;align=center;shape=cube;size=10;direction=south;html=1;boundedLbl=1;spacingLeft=5;whiteSpace=wrap;" vertex="1" parent="zRx8wqQ9m-uIpZDr5qKo-2">
          <mxGeometry width="160" height="80" relative="1" as="geometry">
            <mxPoint x="160" y="150" as="offset" />
          </mxGeometry>
        </mxCell>
        <mxCell id="zRx8wqQ9m-uIpZDr5qKo-4" value="Система хранения данных" style="html=1;align=center;verticalAlign=top;rounded=1;absoluteArcSize=1;arcSize=10;dashed=0;whiteSpace=wrap;" vertex="1" parent="zRx8wqQ9m-uIpZDr5qKo-2">
          <mxGeometry x="20" y="245.8620689655172" width="140" height="42.75862068965517" as="geometry" />
        </mxCell>
        <mxCell id="zRx8wqQ9m-uIpZDr5qKo-5" value="Сетевое оборудование" style="verticalAlign=top;align=center;shape=cube;size=10;direction=south;html=1;boundedLbl=1;spacingLeft=5;whiteSpace=wrap;" vertex="1" parent="zRx8wqQ9m-uIpZDr5qKo-2">
          <mxGeometry x="270" y="40.00431034482759" width="160" height="85.51724137931033" as="geometry" />
        </mxCell>
        <mxCell id="zRx8wqQ9m-uIpZDr5qKo-7" value="" style="endArrow=classic;html=1;rounded=0;exitX=1;exitY=0.5;exitDx=0;exitDy=0;entryX=0;entryY=0;entryDx=80;entryDy=85;entryPerimeter=0;" edge="1" parent="zRx8wqQ9m-uIpZDr5qKo-2" source="zRx8wqQ9m-uIpZDr5qKo-4" target="zRx8wqQ9m-uIpZDr5qKo-3">
          <mxGeometry width="50" height="50" relative="1" as="geometry">
            <mxPoint x="-90" y="230" as="sourcePoint" />
            <mxPoint x="-40" y="180" as="targetPoint" />
            <Array as="points">
              <mxPoint x="235" y="267" />
            </Array>
          </mxGeometry>
        </mxCell>
        <mxCell id="zRx8wqQ9m-uIpZDr5qKo-13" value="" style="endArrow=classic;html=1;rounded=0;exitX=0;exitY=0;exitDx=35;exitDy=0;entryX=0;entryY=0;entryDx=85.51724137931033;entryDy=85;entryPerimeter=0;exitPerimeter=0;" edge="1" parent="zRx8wqQ9m-uIpZDr5qKo-2" source="zRx8wqQ9m-uIpZDr5qKo-3" target="zRx8wqQ9m-uIpZDr5qKo-5">
          <mxGeometry width="50" height="50" relative="1" as="geometry">
            <mxPoint x="320" y="187" as="sourcePoint" />
            <mxPoint x="395" y="150" as="targetPoint" />
            <Array as="points">
              <mxPoint x="345" y="185" />
            </Array>
          </mxGeometry>
        </mxCell>
        <mxCell id="zRx8wqQ9m-uIpZDr5qKo-6" value="WAN" style="ellipse;shape=cloud;whiteSpace=wrap;html=1;" vertex="1" parent="1">
          <mxGeometry x="400" y="70" width="120" height="80" as="geometry" />
        </mxCell>
        <mxCell id="zRx8wqQ9m-uIpZDr5qKo-14" value="" style="endArrow=classic;html=1;rounded=0;exitX=0;exitY=0;exitDx=0;exitDy=75;exitPerimeter=0;entryX=0.8;entryY=0.8;entryDx=0;entryDy=0;entryPerimeter=0;" edge="1" parent="1" source="zRx8wqQ9m-uIpZDr5qKo-5" target="zRx8wqQ9m-uIpZDr5qKo-6">
          <mxGeometry width="50" height="50" relative="1" as="geometry">
            <mxPoint x="240" y="160" as="sourcePoint" />
            <mxPoint x="290" y="110" as="targetPoint" />
            <Array as="points">
              <mxPoint x="615" y="135" />
            </Array>
          </mxGeometry>
        </mxCell>
        <mxCell id="zRx8wqQ9m-uIpZDr5qKo-37" value="" style="sketch=0;outlineConnect=0;fontColor=#232F3E;gradientColor=none;fillColor=#232F3D;strokeColor=none;dashed=0;verticalLabelPosition=bottom;verticalAlign=top;align=center;html=1;fontSize=12;fontStyle=0;aspect=fixed;pointerEvents=1;shape=mxgraph.aws4.globe;fontFamily=Helvetica;" vertex="1" parent="1">
          <mxGeometry x="440" y="610" width="78" height="78" as="geometry" />
        </mxCell>
        <mxCell id="zRx8wqQ9m-uIpZDr5qKo-41" value="" style="sketch=0;outlineConnect=0;fontColor=#232F3E;gradientColor=none;fillColor=#232F3D;strokeColor=none;dashed=0;verticalLabelPosition=bottom;verticalAlign=top;align=center;html=1;fontSize=12;fontStyle=0;aspect=fixed;pointerEvents=1;shape=mxgraph.aws4.users;fontFamily=Helvetica;" vertex="1" parent="1">
          <mxGeometry x="630" y="610" width="78" height="78" as="geometry" />
        </mxCell>
        <mxCell id="zRx8wqQ9m-uIpZDr5qKo-44" value="" style="group" vertex="1" connectable="0" parent="1">
          <mxGeometry x="190" y="850" width="260" height="240" as="geometry" />
        </mxCell>
        <mxCell id="zRx8wqQ9m-uIpZDr5qKo-17" value="Серверная стойка" style="points=[[0,0],[0.25,0],[0.5,0],[0.75,0],[1,0],[1,0.25],[1,0.5],[1,0.75],[1,1],[0.75,1],[0.5,1],[0.25,1],[0,1],[0,0.75],[0,0.5],[0,0.25]];outlineConnect=0;gradientColor=none;html=1;whiteSpace=wrap;fontSize=12;fontStyle=0;container=0;pointerEvents=0;collapsible=0;recursiveResize=0;shape=mxgraph.aws4.group;grIcon=mxgraph.aws4.group_aws_cloud;strokeColor=#232F3E;fillColor=none;verticalAlign=top;align=left;spacingLeft=30;fontColor=#232F3E;dashed=0;" vertex="1" parent="zRx8wqQ9m-uIpZDr5qKo-44">
          <mxGeometry width="260" height="239.99999999999997" as="geometry" />
        </mxCell>
        <mxCell id="zRx8wqQ9m-uIpZDr5qKo-18" value="" style="rounded=0;whiteSpace=wrap;html=1;strokeColor=#222f3e;fillColor=#222f3e;container=0;" vertex="1" parent="zRx8wqQ9m-uIpZDr5qKo-44">
          <mxGeometry width="25" height="27.27272727272727" as="geometry" />
        </mxCell>
        <mxCell id="zRx8wqQ9m-uIpZDr5qKo-16" value="" style="sketch=0;outlineConnect=0;fontColor=#232F3E;gradientColor=none;fillColor=#ffffff;strokeColor=none;dashed=0;verticalLabelPosition=bottom;verticalAlign=top;align=center;html=1;fontSize=12;fontStyle=0;aspect=fixed;pointerEvents=1;shape=mxgraph.aws4.servers;container=0;" vertex="1" parent="zRx8wqQ9m-uIpZDr5qKo-44">
          <mxGeometry x="3.75" y="4.090909090909091" width="17.5" height="17.5" as="geometry" />
        </mxCell>
        <mxCell id="zRx8wqQ9m-uIpZDr5qKo-19" value="сервер" style="sketch=0;outlineConnect=0;fontColor=#232F3E;gradientColor=none;fillColor=#232F3D;strokeColor=none;dashed=0;verticalLabelPosition=bottom;verticalAlign=top;align=center;html=1;fontSize=12;fontStyle=0;aspect=fixed;pointerEvents=1;shape=mxgraph.aws4.traditional_server;container=0;" vertex="1" parent="zRx8wqQ9m-uIpZDr5qKo-44">
          <mxGeometry x="34" y="27.276363636363634" width="45" height="78" as="geometry" />
        </mxCell>
        <mxCell id="zRx8wqQ9m-uIpZDr5qKo-20" value="сервер" style="sketch=0;outlineConnect=0;fontColor=#232F3E;gradientColor=none;fillColor=#232F3D;strokeColor=none;dashed=0;verticalLabelPosition=bottom;verticalAlign=top;align=center;html=1;fontSize=12;fontStyle=0;aspect=fixed;pointerEvents=1;shape=mxgraph.aws4.traditional_server;container=0;" vertex="1" parent="zRx8wqQ9m-uIpZDr5qKo-44">
          <mxGeometry x="108.5" y="27.276363636363634" width="45" height="78" as="geometry" />
        </mxCell>
        <mxCell id="zRx8wqQ9m-uIpZDr5qKo-21" value="&amp;nbsp;сервер" style="sketch=0;outlineConnect=0;fontColor=#232F3E;gradientColor=none;fillColor=#232F3D;strokeColor=none;dashed=0;verticalLabelPosition=bottom;verticalAlign=top;align=center;html=1;fontSize=12;fontStyle=0;aspect=fixed;pointerEvents=1;shape=mxgraph.aws4.traditional_server;container=0;" vertex="1" parent="zRx8wqQ9m-uIpZDr5qKo-44">
          <mxGeometry x="181" y="27.276363636363634" width="45" height="78" as="geometry" />
        </mxCell>
        <mxCell id="zRx8wqQ9m-uIpZDr5qKo-35" value="СХД" style="sketch=0;outlineConnect=0;fontColor=#232F3E;gradientColor=none;fillColor=#232F3D;strokeColor=none;dashed=0;verticalLabelPosition=bottom;verticalAlign=top;align=center;html=1;fontSize=12;fontStyle=0;aspect=fixed;pointerEvents=1;shape=mxgraph.aws4.iot_analytics_data_store;fontFamily=Helvetica;container=0;" vertex="1" parent="zRx8wqQ9m-uIpZDr5qKo-44">
          <mxGeometry x="104" y="136.36727272727273" width="54" height="78" as="geometry" />
        </mxCell>
        <mxCell id="zRx8wqQ9m-uIpZDr5qKo-46" value="" style="sketch=0;outlineConnect=0;fontColor=#232F3E;gradientColor=none;fillColor=#232F3D;strokeColor=none;dashed=0;verticalLabelPosition=bottom;verticalAlign=top;align=center;html=1;fontSize=12;fontStyle=0;aspect=fixed;pointerEvents=1;shape=mxgraph.aws4.internet_alt22;fontFamily=Helvetica;" vertex="1" parent="1">
          <mxGeometry x="332" y="714" width="78" height="78" as="geometry" />
        </mxCell>
        <mxCell id="zRx8wqQ9m-uIpZDr5qKo-48" value="" style="endArrow=classic;html=1;rounded=0;strokeWidth=2;dashed=0;sketch=0;pointerEvents=1;align=center;verticalAlign=top;fontFamily=Helvetica;fontSize=12;fontColor=#232F3E;fontStyle=0;fillColor=#232F3D;gradientColor=none;strokeColor=#222f3d;endFill=1;entryX=0.5;entryY=0;entryDx=0;entryDy=0;startArrow=classic;startFill=1;" edge="1" parent="1" source="zRx8wqQ9m-uIpZDr5qKo-46" target="zRx8wqQ9m-uIpZDr5qKo-17">
          <mxGeometry width="50" height="50" relative="1" as="geometry">
            <mxPoint x="279" y="802" as="sourcePoint" />
            <mxPoint x="340" y="900" as="targetPoint" />
            <Array as="points">
              <mxPoint x="370" y="830" />
              <mxPoint x="320" y="830" />
            </Array>
          </mxGeometry>
        </mxCell>
        <mxCell id="zRx8wqQ9m-uIpZDr5qKo-49" value="" style="endArrow=classic;html=1;rounded=0;strokeWidth=2;dashed=0;sketch=0;pointerEvents=1;align=center;verticalAlign=top;fontFamily=Helvetica;fontSize=12;fontColor=#232F3E;fontStyle=0;fillColor=#232F3D;gradientColor=none;strokeColor=#222f3d;endFill=1;startArrow=classic;startFill=1;" edge="1" parent="1" source="zRx8wqQ9m-uIpZDr5qKo-46" target="zRx8wqQ9m-uIpZDr5qKo-37">
          <mxGeometry width="50" height="50" relative="1" as="geometry">
            <mxPoint x="381" y="802" as="sourcePoint" />
            <mxPoint x="330" y="900" as="targetPoint" />
            <Array as="points">
              <mxPoint x="371" y="650" />
            </Array>
          </mxGeometry>
        </mxCell>
        <mxCell id="zRx8wqQ9m-uIpZDr5qKo-51" value="" style="sketch=0;outlineConnect=0;fontColor=#232F3E;gradientColor=none;fillColor=#232F3D;strokeColor=none;dashed=0;verticalLabelPosition=bottom;verticalAlign=top;align=center;html=1;fontSize=12;fontStyle=0;aspect=fixed;pointerEvents=1;shape=mxgraph.aws4.users;fontFamily=Helvetica;" vertex="1" parent="1">
          <mxGeometry x="527.37" y="750" width="78" height="78" as="geometry" />
        </mxCell>
        <mxCell id="zRx8wqQ9m-uIpZDr5qKo-54" value="" style="group" vertex="1" connectable="0" parent="1">
          <mxGeometry x="510" y="900" width="112.74" height="51" as="geometry" />
        </mxCell>
        <mxCell id="zRx8wqQ9m-uIpZDr5qKo-52" value="" style="sketch=0;outlineConnect=0;fontColor=#232F3E;gradientColor=none;fillColor=#232F3D;strokeColor=none;dashed=0;verticalLabelPosition=bottom;verticalAlign=top;align=center;html=1;fontSize=12;fontStyle=0;aspect=fixed;pointerEvents=1;shape=mxgraph.aws4.client;" vertex="1" parent="zRx8wqQ9m-uIpZDr5qKo-54">
          <mxGeometry width="52.34210526315789" height="51" as="geometry" />
        </mxCell>
        <mxCell id="zRx8wqQ9m-uIpZDr5qKo-53" value="" style="sketch=0;outlineConnect=0;fontColor=#232F3E;gradientColor=none;fillColor=#232F3D;strokeColor=none;dashed=0;verticalLabelPosition=bottom;verticalAlign=top;align=center;html=1;fontSize=12;fontStyle=0;aspect=fixed;pointerEvents=1;shape=mxgraph.aws4.client;" vertex="1" parent="zRx8wqQ9m-uIpZDr5qKo-54">
          <mxGeometry x="60.39642857142857" width="52.34210526315789" height="51" as="geometry" />
        </mxCell>
        <mxCell id="zRx8wqQ9m-uIpZDr5qKo-55" value="" style="endArrow=classic;html=1;rounded=0;strokeWidth=2;dashed=0;sketch=0;pointerEvents=1;align=center;verticalAlign=top;fontFamily=Helvetica;fontSize=12;fontColor=#232F3E;fontStyle=0;fillColor=#232F3D;gradientColor=none;strokeColor=#222f3d;endFill=1;startArrow=classic;startFill=1;" edge="1" parent="1" source="zRx8wqQ9m-uIpZDr5qKo-51" target="zRx8wqQ9m-uIpZDr5qKo-53">
          <mxGeometry width="50" height="50" relative="1" as="geometry">
            <mxPoint x="739" y="802" as="sourcePoint" />
            <mxPoint x="688" y="900" as="targetPoint" />
            <Array as="points">
              <mxPoint x="566" y="860" />
              <mxPoint x="596" y="860" />
            </Array>
          </mxGeometry>
        </mxCell>
        <mxCell id="zRx8wqQ9m-uIpZDr5qKo-56" value="" style="endArrow=classic;html=1;rounded=0;strokeWidth=2;dashed=0;sketch=0;pointerEvents=1;align=center;verticalAlign=top;fontFamily=Helvetica;fontSize=12;fontColor=#232F3E;fontStyle=0;fillColor=#232F3D;gradientColor=none;strokeColor=#222f3d;endFill=1;startArrow=classic;startFill=1;" edge="1" parent="1" target="zRx8wqQ9m-uIpZDr5qKo-52">
          <mxGeometry width="50" height="50" relative="1" as="geometry">
            <mxPoint x="565.5395833333333" y="828" as="sourcePoint" />
            <mxPoint x="561.4871426789724" y="904.8780652308449" as="targetPoint" />
            <Array as="points">
              <mxPoint x="566" y="860" />
              <mxPoint x="536" y="860" />
            </Array>
          </mxGeometry>
        </mxCell>
        <mxCell id="zRx8wqQ9m-uIpZDr5qKo-57" value="" style="endArrow=classic;html=1;rounded=0;strokeWidth=2;dashed=0;sketch=0;pointerEvents=1;align=center;verticalAlign=top;fontFamily=Helvetica;fontSize=12;fontColor=#232F3E;fontStyle=0;fillColor=#232F3D;gradientColor=none;strokeColor=#222f3d;endFill=1;startArrow=classic;startFill=1;" edge="1" parent="1" source="zRx8wqQ9m-uIpZDr5qKo-37" target="zRx8wqQ9m-uIpZDr5qKo-51">
          <mxGeometry width="50" height="50" relative="1" as="geometry">
            <mxPoint x="599.5395833333333" y="678" as="sourcePoint" />
            <mxPoint x="570" y="750" as="targetPoint" />
            <Array as="points">
              <mxPoint x="480" y="710" />
              <mxPoint x="565" y="710" />
            </Array>
          </mxGeometry>
        </mxCell>
        <mxCell id="zRx8wqQ9m-uIpZDr5qKo-58" value="" style="endArrow=classic;html=1;rounded=0;strokeWidth=2;dashed=0;sketch=0;pointerEvents=1;align=center;verticalAlign=top;fontFamily=Helvetica;fontSize=12;fontColor=#232F3E;fontStyle=0;fillColor=#232F3D;gradientColor=none;strokeColor=#222f3d;endFill=1;startArrow=classic;startFill=1;" edge="1" parent="1">
          <mxGeometry width="50" height="50" relative="1" as="geometry">
            <mxPoint x="518" y="648.9013513513514" as="sourcePoint" />
            <mxPoint x="630.0000000000001" y="649.0436708860759" as="targetPoint" />
            <Array as="points" />
          </mxGeometry>
        </mxCell>
        <mxCell id="zRx8wqQ9m-uIpZDr5qKo-59" value="WAN" style="text;html=1;align=center;verticalAlign=middle;resizable=0;points=[];autosize=1;strokeColor=none;fillColor=none;fontFamily=Helvetica;fontSize=19;fontColor=#232F3E;fontStyle=0;strokeWidth=1;" vertex="1" parent="1">
          <mxGeometry x="440" y="565" width="70" height="40" as="geometry" />
        </mxCell>
        <mxCell id="zRx8wqQ9m-uIpZDr5qKo-60" value="Клиенты" style="text;html=1;align=center;verticalAlign=middle;resizable=0;points=[];autosize=1;strokeColor=none;fillColor=none;fontFamily=Helvetica;fontSize=11;fontColor=#232F3E;fontStyle=0;strokeWidth=1;" vertex="1" parent="1">
          <mxGeometry x="638" y="688" width="70" height="30" as="geometry" />
        </mxCell>
        <mxCell id="zRx8wqQ9m-uIpZDr5qKo-61" value="Сотрудники" style="text;html=1;align=center;verticalAlign=middle;resizable=0;points=[];autosize=1;strokeColor=none;fillColor=none;fontFamily=Helvetica;fontSize=11;fontColor=#232F3E;fontStyle=0;strokeWidth=1;" vertex="1" parent="1">
          <mxGeometry x="590" y="798" width="90" height="30" as="geometry" />
        </mxCell>
        <mxCell id="zRx8wqQ9m-uIpZDr5qKo-62" value="Интернет&lt;br&gt;провайдер" style="text;html=1;align=center;verticalAlign=middle;resizable=0;points=[];autosize=1;strokeColor=none;fillColor=none;fontFamily=Helvetica;fontSize=11;fontColor=#232F3E;fontStyle=0;strokeWidth=1;" vertex="1" parent="1">
          <mxGeometry x="280" y="678" width="80" height="40" as="geometry" />
        </mxCell>
        <mxCell id="zRx8wqQ9m-uIpZDr5qKo-63" value="ARM сотрудников" style="text;html=1;align=center;verticalAlign=middle;resizable=0;points=[];autosize=1;strokeColor=none;fillColor=none;fontFamily=Helvetica;fontSize=11;fontColor=#232F3E;fontStyle=0;strokeWidth=1;" vertex="1" parent="1">
          <mxGeometry x="510" y="951" width="120" height="30" as="geometry" />
        </mxCell>
      </root>
    </mxGraphModel>
  </diagram>
</mxfile>
